<mxfile host="app.diagrams.net" agent="Mozilla/5.0 (Windows NT 10.0; Win64; x64) AppleWebKit/537.36 (KHTML, like Gecko) Chrome/130.0.0.0 Safari/537.36 Edg/130.0.0.0" version="24.8.3">
  <diagram name="Página-1" id="87dOXasFhXahZmvE9qLV">
    <mxGraphModel dx="1309" dy="340" grid="1" gridSize="10" guides="1" tooltips="1" connect="1" arrows="0" fold="1" page="1" pageScale="1" pageWidth="827" pageHeight="1169" math="0" shadow="0">
      <root>
        <mxCell id="0" />
        <mxCell id="1" parent="0" />
        <mxCell id="iXsLAZq5B4U-1ETLq_H_-3" style="edgeStyle=orthogonalEdgeStyle;rounded=0;orthogonalLoop=1;jettySize=auto;html=1;entryX=0.5;entryY=1;entryDx=0;entryDy=0;exitX=0.5;exitY=0;exitDx=0;exitDy=0;exitPerimeter=0;" edge="1" parent="1" source="iXsLAZq5B4U-1ETLq_H_-9" target="iXsLAZq5B4U-1ETLq_H_-8">
          <mxGeometry relative="1" as="geometry">
            <mxPoint x="340" y="940" as="sourcePoint" />
            <mxPoint x="340" y="850" as="targetPoint" />
          </mxGeometry>
        </mxCell>
        <mxCell id="iXsLAZq5B4U-1ETLq_H_-12" style="edgeStyle=orthogonalEdgeStyle;rounded=0;orthogonalLoop=1;jettySize=auto;html=1;entryX=0.5;entryY=1;entryDx=0;entryDy=0;" edge="1" parent="1" source="iXsLAZq5B4U-1ETLq_H_-8" target="iXsLAZq5B4U-1ETLq_H_-41">
          <mxGeometry relative="1" as="geometry" />
        </mxCell>
        <mxCell id="iXsLAZq5B4U-1ETLq_H_-8" value="Abre um repositório local&lt;div&gt;(Na própria máquina)&lt;/div&gt;" style="rounded=1;whiteSpace=wrap;html=1;" vertex="1" parent="1">
          <mxGeometry x="260" y="840" width="160" height="60" as="geometry" />
        </mxCell>
        <mxCell id="iXsLAZq5B4U-1ETLq_H_-9" value="Dono do repositório" style="shape=umlActor;verticalLabelPosition=bottom;verticalAlign=top;html=1;outlineConnect=0;" vertex="1" parent="1">
          <mxGeometry x="330" y="940" width="20" height="40" as="geometry" />
        </mxCell>
        <mxCell id="iXsLAZq5B4U-1ETLq_H_-34" style="rounded=0;orthogonalLoop=1;jettySize=auto;html=1;entryX=1;entryY=0.5;entryDx=0;entryDy=0;exitX=0;exitY=0.5;exitDx=0;exitDy=0;dashed=1;endArrow=none;endFill=0;" edge="1" parent="1" source="iXsLAZq5B4U-1ETLq_H_-11" target="iXsLAZq5B4U-1ETLq_H_-25">
          <mxGeometry relative="1" as="geometry">
            <mxPoint x="330.71428571428567" y="225" as="sourcePoint" />
            <mxPoint x="270" y="140" as="targetPoint" />
          </mxGeometry>
        </mxCell>
        <mxCell id="iXsLAZq5B4U-1ETLq_H_-11" value="Repositório remoto&lt;div&gt;(Na internet, usando algum serviço)&lt;/div&gt;" style="rounded=1;whiteSpace=wrap;html=1;" vertex="1" parent="1">
          <mxGeometry x="230" y="220" width="200" height="50" as="geometry" />
        </mxCell>
        <mxCell id="iXsLAZq5B4U-1ETLq_H_-26" value="" style="group;fillColor=none;align=center;strokeWidth=1;perimeterSpacing=0;rounded=0;arcSize=29;dashed=1;dashPattern=1 1;strokeColor=none;" vertex="1" connectable="0" parent="1">
          <mxGeometry x="20" y="200" width="170" height="90" as="geometry" />
        </mxCell>
        <mxCell id="iXsLAZq5B4U-1ETLq_H_-25" value="" style="rounded=1;whiteSpace=wrap;html=1;dashed=1;arcSize=16;" vertex="1" parent="iXsLAZq5B4U-1ETLq_H_-26">
          <mxGeometry width="170" height="90" as="geometry" />
        </mxCell>
        <mxCell id="iXsLAZq5B4U-1ETLq_H_-16" value="Serviços de hospedagem de código" style="text;html=1;align=center;verticalAlign=top;whiteSpace=wrap;rounded=0;fontSize=9;fontStyle=0;dashed=1;dashPattern=8 8;" vertex="1" parent="iXsLAZq5B4U-1ETLq_H_-26">
          <mxGeometry width="170" height="20" as="geometry" />
        </mxCell>
        <mxCell id="iXsLAZq5B4U-1ETLq_H_-27" value="&lt;ul style=&quot;font-size: 9px; padding-left: 15px; padding-bottom: 0px; line-height: 140%;&quot;&gt;&lt;li style=&quot;font-size: 9px;&quot;&gt;Github&lt;/li&gt;&lt;li style=&quot;font-size: 9px;&quot;&gt;Gitlab&lt;/li&gt;&lt;li style=&quot;font-size: 9px;&quot;&gt;Bitbucket&lt;/li&gt;&lt;li style=&quot;font-size: 9px;&quot;&gt;Sourceforge, etc.&lt;/li&gt;&lt;/ul&gt;" style="text;html=1;align=left;verticalAlign=middle;whiteSpace=wrap;rounded=0;fontSize=9;labelBackgroundColor=none;labelBorderColor=none;horizontal=1;labelPosition=center;verticalLabelPosition=middle;dashed=1;dashPattern=8 8;spacingTop=0;" vertex="1" parent="iXsLAZq5B4U-1ETLq_H_-26">
          <mxGeometry x="40" y="19" width="90" height="70" as="geometry" />
        </mxCell>
        <mxCell id="iXsLAZq5B4U-1ETLq_H_-42" style="edgeStyle=orthogonalEdgeStyle;rounded=0;orthogonalLoop=1;jettySize=auto;html=1;entryX=0.5;entryY=1;entryDx=0;entryDy=0;" edge="1" parent="1" source="iXsLAZq5B4U-1ETLq_H_-41" target="iXsLAZq5B4U-1ETLq_H_-43">
          <mxGeometry relative="1" as="geometry" />
        </mxCell>
        <mxCell id="iXsLAZq5B4U-1ETLq_H_-41" value="Cria os primeiros arquivos" style="rounded=1;whiteSpace=wrap;html=1;" vertex="1" parent="1">
          <mxGeometry x="280" y="730" width="120" height="60" as="geometry" />
        </mxCell>
        <mxCell id="iXsLAZq5B4U-1ETLq_H_-62" style="edgeStyle=orthogonalEdgeStyle;rounded=0;orthogonalLoop=1;jettySize=auto;html=1;exitX=0.5;exitY=0;exitDx=0;exitDy=0;entryX=0.5;entryY=1;entryDx=0;entryDy=0;" edge="1" parent="1" source="iXsLAZq5B4U-1ETLq_H_-43" target="iXsLAZq5B4U-1ETLq_H_-61">
          <mxGeometry relative="1" as="geometry" />
        </mxCell>
        <mxCell id="iXsLAZq5B4U-1ETLq_H_-43" value="Faz um &lt;b&gt;commit&lt;/b&gt;" style="rounded=1;whiteSpace=wrap;html=1;" vertex="1" parent="1">
          <mxGeometry x="280" y="620" width="120" height="60" as="geometry" />
        </mxCell>
        <mxCell id="iXsLAZq5B4U-1ETLq_H_-44" value="" style="group;fillColor=none;align=center;strokeWidth=1;perimeterSpacing=0;rounded=0;arcSize=29;dashed=1;dashPattern=1 1;strokeColor=none;" vertex="1" connectable="0" parent="1">
          <mxGeometry x="40" y="590" width="190" height="120" as="geometry" />
        </mxCell>
        <mxCell id="iXsLAZq5B4U-1ETLq_H_-45" value="" style="rounded=1;whiteSpace=wrap;html=1;dashed=1;arcSize=16;" vertex="1" parent="iXsLAZq5B4U-1ETLq_H_-44">
          <mxGeometry width="190" height="120" as="geometry" />
        </mxCell>
        <mxCell id="iXsLAZq5B4U-1ETLq_H_-46" value="&lt;font style=&quot;font-size: 14px;&quot;&gt;Fazer um Commit&lt;/font&gt;" style="text;html=1;align=center;verticalAlign=middle;whiteSpace=wrap;rounded=0;fontSize=9;fontStyle=0;dashed=1;dashPattern=8 8;glass=0;shadow=0;" vertex="1" parent="iXsLAZq5B4U-1ETLq_H_-44">
          <mxGeometry width="190" height="26.666666666666664" as="geometry" />
        </mxCell>
        <mxCell id="iXsLAZq5B4U-1ETLq_H_-52" value="Registrar mudanças no código, dizendo ao sistema de controle de versão (no nosso caso, o git) do seu PC o que há de novo" style="text;html=1;align=center;verticalAlign=middle;whiteSpace=wrap;rounded=0;" vertex="1" parent="iXsLAZq5B4U-1ETLq_H_-44">
          <mxGeometry y="26.67" width="190" height="93.33" as="geometry" />
        </mxCell>
        <mxCell id="iXsLAZq5B4U-1ETLq_H_-55" value="" style="endArrow=none;html=1;rounded=0;exitX=0;exitY=0;exitDx=0;exitDy=0;entryX=1;entryY=0;entryDx=0;entryDy=0;strokeWidth=1;" edge="1" parent="iXsLAZq5B4U-1ETLq_H_-44">
          <mxGeometry width="50" height="50" relative="1" as="geometry">
            <mxPoint y="26.67" as="sourcePoint" />
            <mxPoint x="190.0000000000001" y="26.67" as="targetPoint" />
          </mxGeometry>
        </mxCell>
        <mxCell id="iXsLAZq5B4U-1ETLq_H_-50" style="rounded=0;orthogonalLoop=1;jettySize=auto;html=1;exitX=0;exitY=0.5;exitDx=0;exitDy=0;dashed=1;endArrow=none;endFill=0;entryX=1;entryY=0.5;entryDx=0;entryDy=0;" edge="1" parent="1" source="iXsLAZq5B4U-1ETLq_H_-43" target="iXsLAZq5B4U-1ETLq_H_-45">
          <mxGeometry relative="1" as="geometry">
            <mxPoint x="249.9999999999999" y="650" as="sourcePoint" />
            <mxPoint x="230" y="630" as="targetPoint" />
          </mxGeometry>
        </mxCell>
        <mxCell id="iXsLAZq5B4U-1ETLq_H_-63" style="edgeStyle=orthogonalEdgeStyle;rounded=0;orthogonalLoop=1;jettySize=auto;html=1;exitX=1;exitY=0.5;exitDx=0;exitDy=0;entryX=1;entryY=0.5;entryDx=0;entryDy=0;curved=1;" edge="1" parent="1" source="iXsLAZq5B4U-1ETLq_H_-61" target="iXsLAZq5B4U-1ETLq_H_-43">
          <mxGeometry relative="1" as="geometry">
            <Array as="points">
              <mxPoint x="460" y="530" />
              <mxPoint x="460" y="650" />
            </Array>
          </mxGeometry>
        </mxCell>
        <mxCell id="iXsLAZq5B4U-1ETLq_H_-61" value="Faz algumas mudanças no projeto" style="rounded=1;whiteSpace=wrap;html=1;" vertex="1" parent="1">
          <mxGeometry x="280" y="500" width="120" height="60" as="geometry" />
        </mxCell>
        <mxCell id="iXsLAZq5B4U-1ETLq_H_-64" value="" style="group;fillColor=none;align=center;strokeWidth=1;perimeterSpacing=0;rounded=0;arcSize=29;dashed=1;dashPattern=1 1;strokeColor=none;" vertex="1" connectable="0" parent="1">
          <mxGeometry x="-180" y="616.66" width="190" height="93.34" as="geometry" />
        </mxCell>
        <mxCell id="iXsLAZq5B4U-1ETLq_H_-65" value="" style="rounded=1;whiteSpace=wrap;html=1;dashed=1;arcSize=16;" vertex="1" parent="iXsLAZq5B4U-1ETLq_H_-64">
          <mxGeometry width="190" height="93.34" as="geometry" />
        </mxCell>
        <mxCell id="iXsLAZq5B4U-1ETLq_H_-67" value="Dá para pensar em um &lt;b&gt;commit &lt;/b&gt;como uma &quot;Foto&quot; do seu código. Você tira a foto e guarda para você dentro do seu computador." style="text;html=1;align=center;verticalAlign=middle;whiteSpace=wrap;rounded=0;spacingLeft=2;spacingRight=2;" vertex="1" parent="iXsLAZq5B4U-1ETLq_H_-64">
          <mxGeometry width="190" height="93.34" as="geometry" />
        </mxCell>
        <mxCell id="iXsLAZq5B4U-1ETLq_H_-69" style="rounded=0;orthogonalLoop=1;jettySize=auto;html=1;dashed=1;endArrow=none;endFill=0;entryX=1;entryY=0.5;entryDx=0;entryDy=0;exitX=0;exitY=0.5;exitDx=0;exitDy=0;" edge="1" target="iXsLAZq5B4U-1ETLq_H_-67" parent="1" source="iXsLAZq5B4U-1ETLq_H_-52">
          <mxGeometry relative="1" as="geometry">
            <mxPoint x="20" y="640" as="sourcePoint" />
            <mxPoint x="135" y="740" as="targetPoint" />
          </mxGeometry>
        </mxCell>
        <mxCell id="iXsLAZq5B4U-1ETLq_H_-73" value="Quantas vezes forem necessárias" style="text;html=1;align=center;verticalAlign=middle;whiteSpace=wrap;rounded=0;" vertex="1" parent="1">
          <mxGeometry x="470" y="570" width="100" height="30" as="geometry" />
        </mxCell>
      </root>
    </mxGraphModel>
  </diagram>
</mxfile>
